<?xml version="1.0" standalone="no"?>
<!DOCTYPE svg PUBLIC "-//W3C//DTD SVG 20010904//EN"
 "http://www.w3.org/TR/2001/REC-SVG-20010904/DTD/svg10.dtd">
<svg version="1.0" xmlns="http://www.w3.org/2000/svg"
 width="260.000000pt" height="260.000000pt" viewBox="0 0 260.000000 260.000000"
 preserveAspectRatio="xMidYMid meet">
<metadata>
Created by potrace 1.14, written by Peter Selinger 2001-2017
</metadata>
<g transform="translate(0.000000,260.000000) scale(0.100000,-0.100000)"
fill="#000000" stroke="none">
<path d="M0 1300 l0 -1300 1300 0 1300 0 0 1300 0 1300 -1300 0 -1300 0 0
-1300z m1657 826 c55 -26 203 -132 203 -146 0 -10 -159 -210 -167 -210 -3 0
-31 19 -62 43 -78 59 -91 66 -132 67 -71 0 -121 -69 -101 -138 10 -34 61 -77
453 -387 249 -197 455 -367 471 -389 115 -159 51 -389 -131 -475 l-56 -26
-800 -3 c-835 -3 -878 -2 -958 39 -51 26 -110 89 -138 147 -19 38 -24 64 -24
132 0 99 23 159 85 219 34 33 666 421 686 421 14 0 150 -233 139 -237 -6 -2
-149 -88 -320 -191 -193 -117 -311 -194 -313 -205 -10 -48 -33 -47 803 -47
839 0 812 -2 803 48 -2 12 -170 151 -418 347 -228 180 -432 344 -453 364 -48
46 -94 139 -107 216 -20 122 28 255 121 339 29 26 65 54 81 62 97 50 237 54
335 10z"/>
</g>
</svg>
